<svg width="33" height="33" viewBox="0 0 33 33" fill="none" xmlns="http://www.w3.org/2000/svg">
<g clip-path="url(#clip0_1786_1123)">
<path d="M16.4997 33C19.7631 33 22.9532 32.0323 25.6666 30.2193C28.38 28.4062 30.4949 25.8293 31.7437 22.8143C32.9926 19.7993 33.3193 16.4817 32.6827 13.281C32.046 10.0803 30.4745 7.14031 28.167 4.83275C25.8594 2.52518 22.9194 0.953707 19.7187 0.31705C16.518 -0.319606 13.2004 0.00714912 10.1854 1.256C7.17046 2.50484 4.59351 4.61969 2.78047 7.3331C0.967423 10.0465 -0.000285739 13.2366 -0.000285739 16.5C-0.00562765 18.6683 0.417511 20.8163 1.24482 22.8206C2.07213 24.8249 3.28731 26.646 4.82054 28.1792C6.35377 29.7124 8.17484 30.9276 10.1791 31.7549C12.1834 32.5822 14.3314 33.0053 16.4997 33Z" fill="#2775CA"/>
<path d="M21.0375 19.1138C21.0375 16.7138 19.5945 15.8813 16.707 15.5378C14.643 15.2633 14.232 14.7128 14.232 13.7513C14.232 12.7898 14.919 12.1688 16.293 12.1688C17.532 12.1688 18.219 12.5813 18.5625 13.6133C18.5994 13.7127 18.6659 13.7984 18.7531 13.8588C18.8403 13.9192 18.944 13.9513 19.05 13.9508H20.1495C20.2132 13.9525 20.2765 13.9411 20.3357 13.9175C20.3949 13.8939 20.4486 13.8585 20.4937 13.8135C20.5387 13.7684 20.5741 13.7147 20.5977 13.6555C20.6213 13.5963 20.6327 13.533 20.631 13.4693V13.4018C20.4982 12.6567 20.1229 11.9763 19.5636 11.4663C19.0043 10.9564 18.2922 10.6454 17.538 10.5818V8.93181C17.538 8.65731 17.331 8.45181 16.9875 8.38281H15.9555C15.681 8.38281 15.4755 8.58831 15.4065 8.93181V10.5188C13.338 10.8008 12.0315 12.1688 12.0315 13.8878C12.0315 16.1573 13.407 17.0513 16.2945 17.3948C18.219 17.7383 18.8445 18.1448 18.8445 19.2503C18.8445 20.3558 17.883 21.1073 16.5765 21.1073C14.7885 21.1073 14.1765 20.3573 13.9635 19.3193C13.9439 19.2034 13.8842 19.098 13.7948 19.0215C13.7055 18.945 13.5921 18.9023 13.4745 18.9008H12.3C12.2364 18.8994 12.1731 18.9108 12.1141 18.9345C12.055 18.9582 12.0013 18.9936 11.9563 19.0386C11.9113 19.0836 11.8759 19.1373 11.8522 19.1964C11.8285 19.2554 11.8171 19.3187 11.8185 19.3823V19.4513C12.0945 21.1703 13.194 22.4078 15.4635 22.7513V24.4013C15.4635 24.6758 15.669 24.8828 16.0125 24.9518H17.0445C17.319 24.9518 17.526 24.7448 17.5935 24.4013V22.7513C19.656 22.4078 21.0315 20.9633 21.0315 19.1078L21.0375 19.1138Z" fill="white"/>
<path d="M12.993 26.3318C11.0148 25.6062 9.30713 24.2908 8.10073 22.5633C6.89433 20.8358 6.2474 18.7796 6.2474 16.6725C6.2474 14.5655 6.89433 12.5092 8.10073 10.7818C9.30713 9.05428 11.0148 7.73884 12.993 7.01327C13.125 6.95619 13.2359 6.85928 13.3101 6.73611C13.3843 6.61294 13.4182 6.46965 13.407 6.32627V5.36327C13.4163 5.23696 13.3794 5.11157 13.3033 5.01034C13.2272 4.90912 13.1169 4.83893 12.993 4.81277C12.8962 4.80268 12.799 4.82712 12.7185 4.88177C10.2156 5.6773 8.03082 7.24865 6.48033 9.36838C4.92984 11.4881 4.09412 14.0463 4.09412 16.6725C4.09412 19.2988 4.92984 21.8569 6.48033 23.9767C8.03082 26.0964 10.2156 27.6677 12.7185 28.4633C12.7757 28.4965 12.8399 28.5157 12.9059 28.5193C12.9719 28.5229 13.0378 28.5108 13.0983 28.484C13.1587 28.4572 13.2119 28.4165 13.2536 28.3652C13.2953 28.3139 13.3242 28.2534 13.338 28.1888C13.407 28.1198 13.407 28.0508 13.407 27.9128V26.9513C13.407 26.7443 13.2 26.4698 12.993 26.3318ZM20.2815 4.88177C20.2242 4.84857 20.1599 4.82942 20.0938 4.8259C20.0277 4.82238 19.9617 4.83459 19.9013 4.86153C19.8408 4.88847 19.7876 4.92937 19.746 4.98086C19.7044 5.03236 19.6756 5.09299 19.662 5.15777C19.5945 5.22527 19.5945 5.29427 19.5945 5.43227V6.39377C19.6061 6.53242 19.6493 6.66658 19.7208 6.78593C19.7923 6.90528 19.8902 7.00666 20.007 7.08227C21.9852 7.80784 23.6929 9.12328 24.8993 10.8508C26.1057 12.5782 26.7526 14.6345 26.7526 16.7415C26.7526 18.8486 26.1057 20.9048 24.8993 22.6323C23.6929 24.3598 21.9852 25.6752 20.007 26.4008C19.8752 26.4579 19.7645 26.5549 19.6905 26.6781C19.6165 26.8013 19.583 26.9445 19.5945 27.0878V28.0508C19.5852 28.1769 19.6218 28.3021 19.6976 28.4033C19.7735 28.5045 19.8834 28.5748 20.007 28.6013C20.1038 28.6114 20.201 28.5869 20.2815 28.5323C22.7834 27.7257 24.9651 26.1465 26.5126 24.0216C28.0602 21.8967 28.894 19.3357 28.894 16.707C28.894 14.0783 28.0602 11.5173 26.5126 9.39247C24.9651 7.26759 22.7834 5.6883 20.2815 4.88177Z" fill="white"/>
</g>
<defs>
<clipPath id="clip0_1786_1123">
<rect width="33" height="33" fill="white"/>
</clipPath>
</defs>
</svg>
